<svg width="16" height="16" viewBox="0 0 16 16" fill="none" xmlns="http://www.w3.org/2000/svg">
<path fill-rule="evenodd" clip-rule="evenodd" d="M7.99966 1.33301C8.87514 1.333 9.74205 1.50544 10.5509 1.84047C11.3597 2.1755 12.0947 2.66656 12.7137 3.28562C13.3328 3.90467 13.8238 4.6396 14.1589 5.44844C14.4939 6.25728 14.6664 7.12418 14.6664 7.99966C14.6664 11.6816 11.6816 14.6664 7.99966 14.6664C4.31779 14.6664 1.33301 11.6816 1.33301 7.99966C1.33301 4.31779 4.31779 1.33301 7.99966 1.33301ZM8.66635 8.66635H7.33301C5.68254 8.66635 4.26557 9.66595 3.65441 11.0929C4.62141 12.4488 6.20729 13.333 7.99966 13.333C9.79204 13.333 11.3779 12.4488 12.3449 11.0928C11.7338 9.66595 10.3168 8.66635 8.66635 8.66635ZM7.99966 3.33301C6.8951 3.33301 5.99966 4.22845 5.99966 5.33301C5.99966 6.43757 6.8951 7.33301 7.99966 7.33301C9.10423 7.33301 9.99966 6.43757 9.99966 5.33301C9.99966 4.22845 9.10426 3.33301 7.99966 3.33301Z" fill="white"/>
</svg>
