<svg width="16" height="16" viewBox="0 0 16 16" fill="none" xmlns="http://www.w3.org/2000/svg">
<path d="M1 4C1 3.46957 1.21071 2.96086 1.58579 2.58579C1.96086 2.21071 2.46957 2 3 2H11C11.5304 2 12.0391 2.21071 12.4142 2.58579C12.7893 2.96086 13 3.46957 13 4V4.201L7 7.432L1 4.202V4ZM7.237 8.44L13 5.337V10C13 10.5304 12.7893 11.0391 12.4142 11.4142C12.0391 11.7893 11.5304 12 11 12H3C2.46957 12 1.96086 11.7893 1.58579 11.4142C1.21071 11.0391 1 10.5304 1 10V5.337L6.763 8.44C6.83584 8.47921 6.91727 8.49974 7 8.49974C7.08273 8.49974 7.16416 8.47921 7.237 8.44ZM5 14C4.64894 14 4.30406 13.9076 4.00003 13.732C3.696 13.5565 3.44353 13.304 3.268 13H11C11.7956 13 12.5587 12.6839 13.1213 12.1213C13.6839 11.5587 14 10.7956 14 10V4.268C14.304 4.44353 14.5565 4.696 14.732 5.00003C14.9076 5.30406 15 5.64894 15 6V10C15 11.0609 14.5786 12.0783 13.8284 12.8284C13.0783 13.5786 12.0609 14 11 14H5Z" fill="white"/>
</svg>
